<svg width="165" height="60" viewBox="0 0 165 60" fill="none" xmlns="http://www.w3.org/2000/svg">
<path d="M162.531 22.9558C162.77 25.8657 160.929 28.92 157.117 31.9633C153.323 34.9931 147.68 37.9239 140.584 40.5866C126.397 45.9094 106.512 50.1201 84.2943 51.9432C62.0769 53.7663 41.7711 52.8536 26.9066 49.9145C19.4709 48.4443 13.4258 46.4726 9.1883 44.1019C4.93193 41.7206 2.61742 39.0073 2.37865 36.0974C2.13987 33.1875 3.98111 30.1332 7.79236 27.0899C11.5867 24.0601 17.2296 21.1293 24.3261 18.4666C38.5126 13.1438 58.398 8.93311 80.6155 7.11002C102.833 5.28692 123.139 6.19961 138.003 9.13864C145.439 10.6089 151.484 12.5806 155.722 14.9513C159.978 17.3326 162.292 20.0459 162.531 22.9558Z" stroke="#759242"/>
<path d="M34.66 37V23.14H43.42V25.28H37.18V28.82H42.72V30.96H37.18V37H34.66ZM49.1956 37.2C48.4756 37.1867 47.8756 37.1067 47.3956 36.96C46.929 36.8133 46.5556 36.6067 46.2756 36.34C45.9956 36.06 45.7956 35.72 45.6756 35.32C45.569 34.9067 45.5156 34.44 45.5156 33.92V21.88L47.9356 21.48V33.46C47.9356 33.7533 47.9556 34 47.9956 34.2C48.049 34.4 48.1356 34.5733 48.2556 34.72C48.3756 34.8533 48.5356 34.96 48.7356 35.04C48.949 35.1067 49.2156 35.16 49.5356 35.2L49.1956 37.2ZM60.9531 31.76C60.9531 32.5867 60.8331 33.34 60.5931 34.02C60.3531 34.7 60.0131 35.28 59.5731 35.76C59.1331 36.24 58.5998 36.6133 57.9731 36.88C57.3598 37.1467 56.6798 37.28 55.9331 37.28C55.1865 37.28 54.5065 37.1467 53.8931 36.88C53.2798 36.6133 52.7531 36.24 52.3131 35.76C51.8731 35.28 51.5265 34.7 51.2731 34.02C51.0331 33.34 50.9131 32.5867 50.9131 31.76C50.9131 30.9333 51.0331 30.1867 51.2731 29.52C51.5265 28.84 51.8731 28.26 52.3131 27.78C52.7665 27.3 53.2998 26.9333 53.9131 26.68C54.5265 26.4133 55.1998 26.28 55.9331 26.28C56.6665 26.28 57.3398 26.4133 57.9531 26.68C58.5798 26.9333 59.1131 27.3 59.5531 27.78C59.9931 28.26 60.3331 28.84 60.5731 29.52C60.8265 30.1867 60.9531 30.9333 60.9531 31.76ZM58.4731 31.76C58.4731 30.72 58.2465 29.9 57.7931 29.3C57.3531 28.6867 56.7331 28.38 55.9331 28.38C55.1331 28.38 54.5065 28.6867 54.0531 29.3C53.6131 29.9 53.3931 30.72 53.3931 31.76C53.3931 32.8133 53.6131 33.6467 54.0531 34.26C54.5065 34.8733 55.1331 35.18 55.9331 35.18C56.7331 35.18 57.3531 34.8733 57.7931 34.26C58.2465 33.6467 58.4731 32.8133 58.4731 31.76ZM69.4714 30.42C69.1647 31.5933 68.8314 32.74 68.4714 33.86C68.1247 34.9667 67.7781 36.0133 67.4314 37H65.4514C65.1847 36.3867 64.9047 35.6867 64.6114 34.9C64.3181 34.1133 64.0247 33.2733 63.7314 32.38C63.4381 31.4867 63.1447 30.5467 62.8514 29.56C62.5581 28.5733 62.2714 27.5667 61.9914 26.54H64.5514C64.6714 27.1 64.8114 27.7067 64.9714 28.36C65.1314 29 65.2981 29.66 65.4714 30.34C65.6447 31.0067 65.8247 31.66 66.0114 32.3C66.1981 32.94 66.3847 33.5267 66.5714 34.06C66.7714 33.4467 66.9647 32.8133 67.1514 32.16C67.3514 31.5067 67.5381 30.8533 67.7114 30.2C67.8847 29.5467 68.0447 28.9133 68.1914 28.3C68.3514 27.6733 68.4914 27.0867 68.6114 26.54H70.4714C70.5914 27.0867 70.7247 27.6733 70.8714 28.3C71.0181 28.9133 71.1714 29.5467 71.3314 30.2C71.5047 30.8533 71.6847 31.5067 71.8714 32.16C72.0714 32.8133 72.2714 33.4467 72.4714 34.06C72.6447 33.5267 72.8247 32.94 73.0114 32.3C73.1981 31.66 73.3781 31.0067 73.5514 30.34C73.7381 29.66 73.9114 29 74.0714 28.36C74.2314 27.7067 74.3714 27.1 74.4914 26.54H76.9914C76.7114 27.5667 76.4247 28.5733 76.1314 29.56C75.8381 30.5467 75.5447 31.4867 75.2514 32.38C74.9581 33.2733 74.6647 34.1133 74.3714 34.9C74.0781 35.6867 73.7914 36.3867 73.5114 37H71.5514C71.2047 36.0133 70.8447 34.9667 70.4714 33.86C70.1114 32.74 69.7781 31.5933 69.4714 30.42ZM85.3698 30.42C85.0632 31.5933 84.7298 32.74 84.3698 33.86C84.0232 34.9667 83.6765 36.0133 83.3298 37H81.3498C81.0832 36.3867 80.8032 35.6867 80.5098 34.9C80.2165 34.1133 79.9232 33.2733 79.6298 32.38C79.3365 31.4867 79.0432 30.5467 78.7498 29.56C78.4565 28.5733 78.1698 27.5667 77.8898 26.54H80.4498C80.5698 27.1 80.7098 27.7067 80.8698 28.36C81.0298 29 81.1965 29.66 81.3698 30.34C81.5432 31.0067 81.7232 31.66 81.9098 32.3C82.0965 32.94 82.2832 33.5267 82.4698 34.06C82.6698 33.4467 82.8632 32.8133 83.0498 32.16C83.2498 31.5067 83.4365 30.8533 83.6098 30.2C83.7832 29.5467 83.9432 28.9133 84.0898 28.3C84.2498 27.6733 84.3898 27.0867 84.5098 26.54H86.3698C86.4898 27.0867 86.6232 27.6733 86.7698 28.3C86.9165 28.9133 87.0698 29.5467 87.2298 30.2C87.4032 30.8533 87.5832 31.5067 87.7698 32.16C87.9698 32.8133 88.1698 33.4467 88.3698 34.06C88.5432 33.5267 88.7232 32.94 88.9098 32.3C89.0965 31.66 89.2765 31.0067 89.4498 30.34C89.6365 29.66 89.8098 29 89.9698 28.36C90.1298 27.7067 90.2698 27.1 90.3898 26.54H92.8898C92.6098 27.5667 92.3232 28.5733 92.0298 29.56C91.7365 30.5467 91.4432 31.4867 91.1498 32.38C90.8565 33.2733 90.5632 34.1133 90.2698 34.9C89.9765 35.6867 89.6898 36.3867 89.4098 37H87.4498C87.1032 36.0133 86.7432 34.9667 86.3698 33.86C86.0098 32.74 85.6765 31.5933 85.3698 30.42ZM104 31.76C104 32.5867 103.88 33.34 103.64 34.02C103.4 34.7 103.06 35.28 102.62 35.76C102.18 36.24 101.647 36.6133 101.02 36.88C100.407 37.1467 99.7267 37.28 98.98 37.28C98.2333 37.28 97.5533 37.1467 96.94 36.88C96.3267 36.6133 95.8 36.24 95.36 35.76C94.92 35.28 94.5733 34.7 94.32 34.02C94.08 33.34 93.96 32.5867 93.96 31.76C93.96 30.9333 94.08 30.1867 94.32 29.52C94.5733 28.84 94.92 28.26 95.36 27.78C95.8133 27.3 96.3467 26.9333 96.96 26.68C97.5733 26.4133 98.2467 26.28 98.98 26.28C99.7133 26.28 100.387 26.4133 101 26.68C101.627 26.9333 102.16 27.3 102.6 27.78C103.04 28.26 103.38 28.84 103.62 29.52C103.873 30.1867 104 30.9333 104 31.76ZM101.52 31.76C101.52 30.72 101.293 29.9 100.84 29.3C100.4 28.6867 99.78 28.38 98.98 28.38C98.18 28.38 97.5533 28.6867 97.1 29.3C96.66 29.9 96.44 30.72 96.44 31.76C96.44 32.8133 96.66 33.6467 97.1 34.26C97.5533 34.8733 98.18 35.18 98.98 35.18C99.78 35.18 100.4 34.8733 100.84 34.26C101.293 33.6467 101.52 32.8133 101.52 31.76ZM112.453 28.72C112.253 28.6533 111.973 28.5867 111.613 28.52C111.266 28.44 110.86 28.4 110.393 28.4C110.126 28.4 109.84 28.4267 109.533 28.48C109.24 28.5333 109.033 28.58 108.913 28.62V37H106.493V27.04C106.96 26.8667 107.54 26.7067 108.233 26.56C108.94 26.4 109.72 26.32 110.573 26.32C110.733 26.32 110.92 26.3333 111.133 26.36C111.346 26.3733 111.56 26.4 111.773 26.44C111.986 26.4667 112.193 26.5067 112.393 26.56C112.593 26.6 112.753 26.64 112.873 26.68L112.453 28.72ZM118.2 37.2C117.48 37.1867 116.88 37.1067 116.4 36.96C115.933 36.8133 115.56 36.6067 115.28 36.34C115 36.06 114.8 35.72 114.68 35.32C114.573 34.9067 114.52 34.44 114.52 33.92V21.88L116.94 21.48V33.46C116.94 33.7533 116.96 34 117 34.2C117.053 34.4 117.14 34.5733 117.26 34.72C117.38 34.8533 117.54 34.96 117.74 35.04C117.953 35.1067 118.22 35.16 118.54 35.2L118.2 37.2ZM122.397 31.74C122.397 32.8067 122.65 33.6467 123.157 34.26C123.664 34.86 124.364 35.16 125.257 35.16C125.644 35.16 125.97 35.1467 126.237 35.12C126.517 35.08 126.744 35.04 126.917 35V29C126.704 28.8533 126.417 28.72 126.057 28.6C125.71 28.4667 125.337 28.4 124.937 28.4C124.057 28.4 123.41 28.7 122.997 29.3C122.597 29.9 122.397 30.7133 122.397 31.74ZM129.337 36.68C128.857 36.8267 128.25 36.96 127.517 37.08C126.797 37.2 126.037 37.26 125.237 37.26C124.41 37.26 123.67 37.1333 123.017 36.88C122.364 36.6267 121.804 36.2667 121.337 35.8C120.884 35.32 120.53 34.7467 120.277 34.08C120.037 33.4 119.917 32.64 119.917 31.8C119.917 30.9733 120.017 30.2267 120.217 29.56C120.43 28.88 120.737 28.3 121.137 27.82C121.537 27.34 122.024 26.9733 122.597 26.72C123.17 26.4533 123.83 26.32 124.577 26.32C125.084 26.32 125.53 26.38 125.917 26.5C126.304 26.62 126.637 26.7533 126.917 26.9V21.88L129.337 21.48V36.68Z" fill="#424530"/>
</svg>
